HIERARCHY
ROOT hip
{
	OFFSET 0.000000 0.000000 0.000000 
	CHANNELS 6 Xposition Yposition Zposition Xrotation Zrotation Yrotation
	JOINT abdomen
	{
		OFFSET 0.000000 3.402643 0.000000 
		CHANNELS 3 Xrotation Zrotation Yrotation
		JOINT chest
		{
			OFFSET 0.000000 8.438565 -0.680529 
			CHANNELS 3 Xrotation Zrotation Yrotation
			JOINT neck
			{
				OFFSET 0.000000 10.207942 -0.272212 
				CHANNELS 3 Xrotation Zrotation Yrotation
				JOINT head
				{
					OFFSET 0.000000 3.130431 0.000000 
					CHANNELS 3 Xrotation Zrotation Yrotation
					End Site
					{
						OFFSET 0.000000 3.130435 0.000000 
					}
				}
			}
			JOINT lCollar
			{
				OFFSET 3.470700 6.669187 -0.816635 
				CHANNELS 3 Yrotation Zrotation Xrotation
				JOINT lShldr
				{
					OFFSET 3.198488 0.000000 0.000000 
					CHANNELS 3 Zrotation Yrotation Xrotation
					JOINT lForeArm
					{
						OFFSET 10.139888 0.000000 0.000000 
						CHANNELS 3 Yrotation Zrotation Xrotation
						JOINT lHand
						{
							OFFSET 8.370511 0.000000 0.000000 
							CHANNELS 3 Zrotation Yrotation Xrotation
							End Site
							{
								OFFSET 4.083176 0.000000 0.000000 
							}
						}
					}
				}
			}
			JOINT rCollar
			{
				OFFSET -3.470700 6.669187 -0.816635 
				CHANNELS 3 Yrotation Zrotation Xrotation
				JOINT rShldr
				{
					OFFSET -3.198488 0.000000 0.000000 
					CHANNELS 3 Zrotation Yrotation Xrotation
					JOINT rForeArm
					{
						OFFSET -10.139888 0.000000 0.000000 
						CHANNELS 3 Yrotation Zrotation Xrotation
						JOINT rHand
						{
							OFFSET -8.370511 0.000000 0.000000 
							CHANNELS 3 Zrotation Yrotation Xrotation
							End Site
							{
								OFFSET -4.083176 0.000000 0.000000 
							}
						}
					}
				}
			}
		}
	}
	JOINT lThigh
	{
		OFFSET 5.308129 -1.633274 1.361059 
		CHANNELS 3 Xrotation Zrotation Yrotation
		JOINT lShin
		{
			OFFSET -2.041588 -20.007561 0.000000 
			CHANNELS 3 Xrotation Zrotation Yrotation
			JOINT lFoot
			{
				OFFSET 0.000000 -19.190928 -1.224953 
				CHANNELS 3 Xrotation Yrotation Zrotation
				End Site
				{
					OFFSET 0.000000 -2.449906 4.627600 
				}
			}
		}
	}
	JOINT rThigh
	{
		OFFSET -5.308129 -1.633274 1.361059 
		CHANNELS 3 Xrotation Zrotation Yrotation
		JOINT rShin
		{
			OFFSET 2.041588 -20.007561 0.000000 
			CHANNELS 3 Xrotation Zrotation Yrotation
			JOINT rFoot
			{
				OFFSET 0.000000 -19.190928 -1.224953 
				CHANNELS 3 Xrotation Yrotation Zrotation
				End Site
				{
					OFFSET 0.000000 -2.449906 4.627600 
				}
			}
		}
	}
}
MOTION
Frames: 16
Frame Time: 0.033333
-12.218589 49.215214 113.855347 178.203751 179.990250 3.613283 0.000000 0.000000 0.000000 -3.125196 -0.549718 0.307005 2.677893 -1.609092 11.254281 6.249551 5.267278 8.963984 -7.766872 -7.450230 -2.744025 -63.294960 20.610119 19.199760 -40.329029 -5.001337 21.209482 5.111550 9.915379 -3.302441 10.377230 12.777942 -3.268558 57.256462 -25.084660 16.310259 46.223194 4.988884 15.975118 -8.366827 -6.111701 -3.347380 3.943915 1.367549 4.443732 -0.682801 -4.145682 10.003256 -3.204573 0.032850 2.114233 4.705706 -6.327536 -8.000871 0.615173 3.402783 -6.580018 -4.960325 -0.203379 4.266217 
-12.250658 49.206879 113.903816 178.231033 -179.980530 4.091796 0.000000 0.000000 0.000000 -3.095906 -0.625271 0.441666 2.674171 -1.414980 11.761411 5.630641 4.632678 9.533722 -7.541184 -7.308200 -2.715302 -62.938438 21.066074 19.000008 -39.881916 -5.007998 21.192720 5.399718 10.139971 -3.270328 10.530863 12.852631 -3.238975 56.830349 -24.755205 16.283674 45.944881 4.988582 15.962516 -8.450362 -6.029555 -3.351508 3.792143 1.209399 4.220548 -0.703552 -4.000454 9.943863 -3.184114 0.040271 2.296567 4.788908 -6.409738 -8.147593 0.585653 3.481408 -6.856203 -5.066548 -0.160902 4.307054 
-12.269696 49.193268 113.860962 178.600250 179.639618 4.130962 0.000000 0.000000 0.000000 -2.968400 -0.394983 0.802386 2.763801 -0.982677 12.325893 5.239834 4.039995 9.956936 -7.004739 -6.757575 -2.539040 -63.257771 21.575521 18.331207 -39.431709 -5.005290 21.418617 5.583930 10.446170 -3.244001 10.915416 13.205427 -3.169879 56.251484 -24.777992 16.194029 45.930908 4.993395 17.267256 -7.906496 -5.990598 -3.360698 4.037799 1.580206 4.479502 -0.351645 -3.950084 9.838790 -3.805355 0.020896 2.134831 5.252699 -6.044437 -8.060756 0.429688 3.539744 -6.945224 -5.069802 -0.180785 4.319778 
-12.312994 49.174206 113.903252 178.553070 179.542542 4.677896 0.000000 0.000000 0.000000 -2.997717 -0.424149 0.805139 2.735663 -0.877239 12.472057 4.851597 3.970146 10.161492 -6.905329 -6.692403 -2.549179 -63.514946 22.292843 17.259483 -39.502766 -5.006639 21.531044 5.164629 10.702750 -3.272044 11.014064 13.316805 -3.229583 55.773132 -24.659977 16.035673 45.946754 4.986989 18.226311 -7.341460 -5.961778 -3.379801 3.737553 1.591248 4.231569 -0.029795 -3.745745 9.441050 -4.091815 -0.014806 2.111337 5.267251 -6.018619 -8.186407 0.421007 3.643075 -7.337563 -5.178433 -0.181477 4.342127 
-12.362919 49.140617 113.975487 178.320404 179.474930 5.322578 0.000000 0.000000 0.000000 -3.056433 -0.506523 0.763866 2.463162 -0.791749 12.364377 5.088897 3.873903 10.170559 -6.929773 -6.830068 -2.617659 -63.368378 22.591772 16.766251 -39.688034 -4.997888 21.328012 5.108627 10.669432 -3.274519 10.985953 13.340751 -3.269538 55.549908 -24.373339 15.849546 46.032764 4.985024 17.884924 -7.504792 -6.011440 -3.366822 3.238523 1.522339 3.889002 0.234123 -3.537982 8.775137 -4.365992 0.031492 2.058664 5.065274 -6.051335 -8.251997 0.528525 3.671359 -7.857357 -5.392481 -0.230924 4.419181 
-12.423174 49.109528 113.970078 178.206955 179.358505 5.557057 0.000000 0.000000 0.000000 -3.085549 -0.549234 0.934651 2.305826 -0.667964 12.276138 5.152161 3.557887 10.058904 -6.776821 -6.823940 -2.647372 -63.387077 22.645815 16.468813 -39.749680 -5.003332 20.581512 5.498637 10.373330 -3.265525 11.135795 13.319124 -3.288948 55.496365 -24.259140 15.598861 46.168167 4.984589 17.608006 -7.415997 -6.015932 -3.374699 3.100097 1.686672 3.980875 0.467952 -3.701879 8.028441 -4.872598 -0.004265 2.386675 4.978734 -5.995094 -8.138234 0.566370 3.618242 -8.030381 -5.549030 -0.231844 4.548440 
-12.488997 49.075127 114.004471 178.100006 179.290833 5.850127 0.000000 0.000000 0.000000 -3.007516 -0.682589 0.976662 2.331836 -0.563679 11.953691 5.006851 2.933753 9.954735 -6.800915 -7.083622 -2.590667 -63.711075 22.913656 15.337261 -40.328369 -4.999648 19.179155 5.539675 10.493362 -3.255346 11.202898 13.331323 -3.199648 55.320053 -24.110804 15.496303 46.435787 4.989792 17.347712 -7.343938 -6.069865 -3.373987 3.015795 1.806250 4.104565 0.496467 -3.923930 7.267531 -5.338452 -0.081936 2.930873 4.812157 -5.973874 -7.852143 0.849609 3.292811 -7.910155 -5.987310 -0.205687 4.885395 
-12.552630 48.974335 114.031990 178.050262 179.018860 5.879880 0.000000 0.000000 0.000000 -2.880489 -0.696520 1.036831 2.301155 -0.391975 11.767833 5.354157 2.655524 9.864546 -6.654587 -6.985842 -2.473413 -64.526245 23.139681 13.838474 -41.144470 -5.008404 17.525906 5.854280 10.721453 -3.232293 11.218441 13.379382 -3.089975 55.323372 -23.992321 15.399539 47.100029 4.995582 17.254044 -7.486253 -6.275994 -3.361663 2.302190 2.292521 4.489438 2.114810 -4.210500 6.503991 -6.573024 -0.100061 2.848723 4.568948 -5.829344 -7.435540 1.376324 3.063534 -7.326963 -6.523492 -0.278888 5.170149 
-12.609428 48.844368 114.040825 177.900345 178.804565 5.596926 0.000000 0.000000 0.000000 -2.821936 -0.807673 1.106174 2.336374 -0.411125 11.748302 5.608759 2.916242 9.759184 -6.464544 -6.854722 -2.404487 -65.319695 23.332693 12.422382 -41.802891 -5.008883 15.808968 5.800086 10.687106 -3.227414 11.220960 13.237041 -3.010608 55.828766 -23.899647 14.979144 47.722221 4.990646 17.315922 -7.555729 -6.398998 -3.357229 1.062066 2.854740 5.103905 4.743054 -4.686196 5.620201 -8.029250 -0.070493 2.435320 4.547112 -5.943056 -7.596371 1.267994 3.283166 -6.583365 -5.996141 -0.270257 5.187350 
-12.680293 48.752884 114.090492 177.738434 178.881561 5.196418 0.000000 0.000000 0.000000 -2.597769 -1.080816 1.122321 2.496129 -0.764666 11.827189 5.337503 3.359937 9.665462 -6.424044 -7.373659 -2.231253 -65.412239 23.406769 11.307110 -42.549473 -5.003008 13.854188 5.328157 10.880287 -3.252409 11.079263 12.883126 -2.729897 56.770691 -23.549490 14.292424 48.175488 4.986788 16.688990 -7.605542 -6.538870 -3.342364 0.389773 2.944402 5.395211 6.007992 -5.072892 5.202574 -8.760220 -0.070102 2.322820 0.779434 -6.924485 -8.062700 8.495269 3.748225 -5.131359 -7.039274 -0.339297 5.418058 
-12.765509 48.720814 114.144676 177.968643 179.104950 4.981080 0.000000 0.000000 0.000000 -1.846901 -1.425544 0.899864 2.758158 -1.051377 11.837859 4.843086 3.319679 9.840935 -6.561479 -7.955947 -1.596235 -65.568672 22.863047 9.968306 -42.890888 -4.999438 12.627627 5.161749 11.172587 -3.252696 10.692053 12.672285 -1.970210 57.822983 -22.747917 13.401129 48.574585 4.985652 15.836632 -7.787148 -6.747174 -3.322188 0.544960 2.725794 5.363306 6.173284 -5.169666 5.282602 -8.846247 -0.062476 2.359329 -5.300492 -8.324767 -8.555627 20.671158 3.837245 -4.049245 -8.258751 -0.424070 5.923628 
-12.836760 48.754467 114.064514 178.780487 178.949081 4.844725 0.000000 0.000000 0.000000 -0.665656 -1.448906 0.548942 3.222456 -1.118243 11.847989 3.662381 3.172494 10.133405 -7.034803 -8.231812 -0.567585 -65.527458 21.826607 9.118196 -42.521767 -5.000809 12.092320 5.160064 11.201681 -3.249688 10.219468 12.983316 -0.928868 58.570957 -21.852764 12.657281 48.986012 4.991502 15.107832 -7.765256 -6.784641 -3.318918 1.816112 2.763520 5.525382 5.482679 -5.064486 5.324703 -8.660253 -0.094218 2.407578 -8.375921 -8.970090 -9.288363 27.197107 4.072307 -4.684131 -6.218539 -0.332915 6.303797 
-12.889561 48.799610 113.880745 179.308945 178.647842 5.050415 0.000000 0.000000 0.000000 0.193888 -1.334565 -0.109269 3.548818 -1.280538 11.887647 2.163335 3.484958 10.566921 -7.955128 -8.605641 0.157384 -64.759644 21.130894 9.348521 -42.457737 -5.005008 11.887164 5.800680 10.961427 -3.215526 9.522986 13.154572 -0.179932 59.214851 -21.087738 12.375064 49.184303 4.994085 14.630482 -7.671781 -6.848411 -3.330431 2.682919 3.005813 5.695411 5.138618 -4.983240 4.955591 -8.644086 -0.135347 2.614005 -10.019037 -9.286418 -10.114710 29.385389 4.450263 -6.986104 -3.776672 -0.223695 6.822935 
-12.913589 48.834679 113.628456 179.376617 178.191345 5.295873 0.000000 0.000000 0.000000 0.614958 -1.077145 -0.810430 3.670370 -1.460780 12.132872 0.628698 4.275069 11.047197 -8.879327 -8.962406 0.488661 -63.645226 20.562080 10.268995 -42.456108 -5.001791 12.671932 5.998598 10.348319 -3.230300 8.920996 13.264946 0.147567 59.584297 -20.738779 12.517768 49.270863 4.985446 14.818065 -7.704068 -6.801857 -3.333839 3.296486 3.365744 5.851334 4.475858 -4.818076 4.779940 -8.580213 -0.122301 2.490601 -11.518648 -9.252266 -10.600459 29.290024 4.831538 -10.023704 -1.837541 -0.103705 6.599207 
-12.914057 48.832355 113.335083 179.254959 177.607910 5.297719 0.000000 0.000000 0.000000 0.811377 -0.729220 -1.176952 3.882043 -1.457940 12.640760 -1.128267 5.130360 11.472829 -9.446328 -8.862809 0.682722 -62.539745 19.730738 12.162745 -42.473793 -4.998777 14.039180 5.601676 10.311040 -3.255408 8.554187 13.393361 0.297639 59.987221 -20.898445 12.547767 49.311333 4.988936 15.271348 -7.569875 -6.625339 -3.343109 3.717135 3.815826 6.017219 3.998323 -4.642879 4.734065 -8.687658 -0.090154 1.968792 -13.344059 -8.861916 -10.405306 28.319452 5.058257 -12.341962 -0.203058 0.011246 5.396780 
-12.895443 48.816822 112.989067 179.111771 177.217758 5.025924 0.000000 0.000000 0.000000 1.007063 -0.552767 -1.281884 4.065530 -1.528588 13.539887 -2.856020 6.412134 11.941522 -9.616199 -8.508821 0.886603 -61.516037 18.618998 14.712684 -42.793964 -5.005341 15.538274 5.491847 10.773729 -3.243261 8.370120 13.503304 0.454892 60.425140 -21.280453 12.329347 49.095108 4.993080 15.617169 -7.379249 -6.553450 -3.354325 4.037309 4.194574 6.241790 4.056427 -4.593723 4.632817 -9.165602 -0.080891 1.706711 -15.299209 -8.473780 -9.685927 26.693043 5.075195 -13.960897 2.128794 0.073017 3.894499 
